<?xml version="1.0" encoding="utf-8"?>
<!-- Generator: Adobe Illustrator 14.0.0, SVG Export Plug-In . SVG Version: 6.00 Build 43363)  -->
<!DOCTYPE svg PUBLIC "-//W3C//DTD SVG 1.1//EN" "http://www.w3.org/Graphics/SVG/1.1/DTD/svg11.dtd">
<svg version="1.1" xmlns="http://www.w3.org/2000/svg" xmlns:xlink="http://www.w3.org/1999/xlink" x="0px" y="0px"
	 width="595.276px" height="841.89px" viewBox="0 0 595.276 841.89" enable-background="new 0 0 595.276 841.89"
	 xml:space="preserve">
<g id="格点" display="none">
</g>
<g id="图层_1">
</g>
<g id="桌面">
</g>
<g id="导线">
</g>
<g id="Page_1">
	<g id="图层_1_1_">
		<g>
			<polygon fill-rule="evenodd" clip-rule="evenodd" fill="#231815" points="69.482,190.077 447.957,190.077 447.957,193.193 
				69.482,193.193 69.482,190.077 			"/>
			<path fill-rule="evenodd" clip-rule="evenodd" fill="#E60012" d="M132.172,140.271c0.317-0.313,0.583-0.625,0.779-0.938
				c0-0.411,0-0.763,0-1.074c-0.047-1.139,0.026-2.11,0.231-2.933c0.15-0.877,0.206-2.195,0.15-3.934
				c-0.15-1.442-0.796-2.813-1.922-4.088c-2.833-2.466-5.201-3.377-7.105-2.709c-1.036,0.308-2.388,0.282-4.092-0.077
				c-2.205-0.514-4.345-0.283-6.395,0.702c-0.993,0.402-1.704,0.59-2.17,0.539c-0.458-0.052-0.869-0.052-1.233,0
				c-0.201,0.051-0.33,0.099-0.39,0.154c-1.755,0.719-2.954,1.335-3.621,1.857c-0.051,0.094-0.111,0.253-0.163,0.458
				c-0.869,1.742-1.284,2.949-1.216,3.625c0.235,1.644,0.402,2.796,0.445,3.472c-0.099,1.593,0.163,2.881,0.771,3.861
				c0,0.056,0,0.106,0,0.146l0.163,0.085c0.92,0.775,1.721,1.383,2.393,1.854c0.099,0.095,0.176,0.18,0.231,0.231
				c0.663-0.205,1.254-0.291,1.768-0.231c0.728,0.15,1.502,0.15,2.312,0c0.676-0.214,1.348-0.231,2.016-0.085
				c0.826,0.111,1.485-0.018,2.003-0.386c0.561-0.205,1.485-0.266,2.782-0.227h0.073c0.514-0.304,0.886-0.557,1.083-0.775
				c0.159-0.205,0.33-0.406,0.543-0.611c0.035-0.364,0.18-0.646,0.377-0.853c0.214-0.359,0.394-0.877,0.539-1.549
				c0-0.463-0.06-1.104-0.222-1.927c-0.056-0.616-0.056-1.108,0-1.464c0.411-0.924,0.642-1.703,0.702-2.312
				c0-1.181,0.454-2.114,1.378-2.79c1.036-0.818,1.849-1.139,2.474-0.989c0.569,0.142,1.023,0.561,1.387,1.229
				c0.415,0.873,0.591,1.857,0.54,2.933c-0.142,0.821-0.334,1.574-0.54,2.238c-0.308,0.724-0.719,1.387-1.233,2.003
				c-0.573,0.672-0.873,1.644-0.924,2.937c-0.064,0.261-0.107,0.544-0.163,0.843c0.163,0.159,0.308,0.343,0.471,0.553
				c0.043,0,0.099,0.077,0.154,0.231c0.667-0.052,1.481,0,2.465,0.146c0.942,0.119,1.772,0.137,2.551,0.076
				c0.094,0,0.163,0.043,0.235,0.082c0.094-0.158,0.146-0.228,0.146-0.228S132.018,140.318,132.172,140.271L132.172,140.271z
				 M116.129,151.144c0-0.146,0.017-0.3,0.073-0.454c0.047-0.573,0-1.087-0.15-1.541c0-0.316,0-0.659,0-1.01
				c0-0.317,0-0.616,0-0.934c-0.158-0.196-0.347-0.325-0.548-0.377c-0.557-0.359-1.241-0.624-2.012-0.778h-0.068
				c-0.874,0.471-1.558,0.728-2.076,0.778c-0.625,0.095-1.186,0.154-1.699,0.154c-0.266,0.111-0.419,0.172-0.471,0.223
				c-0.565,0.368-0.946,0.728-1.164,1.079c-0.261,0.265-0.454,0.577-0.595,0.924c-0.064,1.036-0.192,1.862-0.402,2.487
				c-0.308,0.663-0.432,1.408-0.389,2.238c0.573-0.676,1.344-1.112,2.32-1.326c0.834-0.296,1.498-0.424,2.003-0.377
				c0.573,0.149,1.164,0.149,1.776,0c0.569-0.154,1.113-0.154,1.622,0c0.051,0,0.107,0,0.163,0
				C115.222,151.819,115.761,151.46,116.129,151.144L116.129,151.144z M140.207,173.294c0.252,1.288,0.274,2.315,0.073,3.1
				c-0.257,0.552-0.411,1.014-0.462,1.387c-0.214,0.564-0.411,0.938-0.616,1.143c-0.762,0.676-1.657,1.006-2.62,1.006
				c-0.877-0.047-1.618-0.483-2.234-1.31c-0.672-1.083-0.985-1.956-0.933-2.615c0.042-0.625-0.026-1.165-0.231-1.618
				c-0.158-0.42-0.158-0.856,0-1.318c0.15-0.565,0.15-1.164,0-1.772c-0.419-1.549-0.548-2.705-0.394-3.484
				c0.27-2.311,0.197-4.575-0.154-6.784c-0.051-0.625-0.051-1.186,0-1.708c0.06-0.564,0.06-1.408,0-2.533
				c-0.098-1.349-0.051-2.397,0.154-3.172c0.27-1.02,0.308-2.094,0.163-3.236c-0.163-0.621-0.257-1.391-0.317-2.315
				c-0.462-0.51-0.877-0.882-1.224-1.079c-0.625-0.625-1.087-1.031-1.396-1.236c-0.098-0.061-0.231-0.116-0.381-0.15
				c-1.605-0.471-3.197-0.544-4.79-0.239c-0.672,0.162-1.259,0.239-1.768,0.239c-0.569,0.09-0.958,0.223-1.16,0.377
				c-0.309,0.111-0.574,0.257-0.779,0.471c0.064,0.103,0.086,0.171,0.086,0.227c0,0.569,0.017,1.173,0.077,1.858
				c0.043,0.406,0,0.783-0.163,1.155c-0.051,0.047-0.073,0.158-0.073,0.313c0.415,0.51,0.873,0.941,1.4,1.31
				c0.042,0.052,0.098,0.103,0.146,0.154c0.659-0.052,1.464,0,2.388,0.149c0.98,0.048,1.858,0.048,2.62,0
				c0.831,0.048,1.626,0.339,2.397,0.848c0.882,0.569,1.31,1.387,1.31,2.475c0.068,0.916-0.454,1.639-1.541,2.152
				c-1.233,0.463-2.646,0.445-4.242-0.072c-1.134-0.313-2.32-0.347-3.557-0.146c-0.92,0.252-1.789,0.282-2.611,0.068h-0.09
				c-2.102,0.715-3.54,1.34-4.319,1.854l0.077,0.068c0.154,0.787,0,1.811-0.458,3.091c-0.103,0.577-0.128,1.035-0.073,1.395
				c0,0.317,0,0.856,0,1.614c0,0.625,0.099,1.164,0.3,1.622c0.103,0.313,0.231,0.569,0.385,0.771c0.672,0.424,0.826,1.01,0.471,1.78
				c-0.313,0.763-0.805,1.318-1.473,1.618c-0.411,0.043-0.77,0.043-1.087,0c-0.308-0.103-0.689-0.239-1.151-0.385
				c-1.087-0.313-1.871-1.259-2.384-2.851c-0.415-2.106-0.543-3.81-0.394-5.094c0.107-0.616,0.184-1.173,0.231-1.622
				c0-0.206,0-0.416,0-0.621c-0.094-0.359-0.231-0.642-0.381-0.856c-0.159-0.299-0.317-0.53-0.462-0.685
				c-0.471,0-0.877-0.025-1.241-0.077c-0.458-0.252-0.843-0.488-1.156-0.685c0,0.094,0.025,0.214,0.073,0.377
				c0,0.659-0.103,1.489-0.308,2.465c-0.355,0.822-0.505,1.546-0.462,2.153c-0.043,0.475-0.099,0.938-0.146,1.396
				c-0.154,0.363-0.206,0.774-0.154,1.237c0,0.453-0.103,0.954-0.316,1.472c-0.257,0.557-0.381,1.151-0.381,1.772
				c0,0.359-0.098,0.873-0.316,1.536c-0.775,1.914-1.25,3.425-1.46,4.559c-0.248,0.771-0.693,1.485-1.318,2.166
				c-0.916,0.775-1.772,1.225-2.534,1.392c-0.668,0.038-1.404-0.099-2.166-0.476c-0.667-0.514-1.113-1.104-1.318-1.776
				c-0.146-0.663-0.206-1.331-0.146-1.999c0.21-0.676,0.402-1.258,0.616-1.78c0.355-0.411,0.796-1.019,1.314-1.857
				c0.869-1.015,1.314-1.866,1.314-2.534c0.098-0.565,0.257-0.95,0.454-1.16c0.462-1.182,0.805-2.247,1.01-3.154
				c0.308-0.677,0.462-1.28,0.462-1.781c0-2.063,0.419-4.049,1.229-5.94c0.458-1.199,0.509-2.346,0.167-3.48
				c0.103-0.869,0.171-1.485,0.223-1.854c0.261-0.762,0.36-1.541,0.308-2.319c-0.205-1.275-0.239-2.466-0.068-3.553
				c0.094-0.972,0.043-2.868-0.171-5.702c-0.142-1.644-0.561-2.936-1.216-3.852c-0.933-1.336-1.421-3.039-1.481-5.103
				c-0.257-2.106,0.077-4.032,1.01-5.791c0.873-2.055,1.687-3.258,2.47-3.626c1.186-0.607,2.234-0.591,3.167,0.086
				c-0.056-0.056-0.056-0.086,0-0.086c0.206-0.06,0.561-0.06,1.074,0c0.321,0,0.771-0.017,1.378-0.077
				c1.194-0.411,2.354-0.514,3.48-0.3c0.826,0.197,1.468,0.24,1.939,0.073c1.07-0.518,1.866-0.697,2.388-0.535
				c0.3,0.052,0.689-0.034,1.16-0.239c1.229-0.514,2.312-0.617,3.24-0.3c0.959,0.252,1.96,0.273,2.919,0.06
				c1.601-0.248,2.975-0.273,4.101-0.06c0.728,0.103,1.31,0.12,1.78,0.06c0.565,0,1.01,0.163,1.387,0.479
				c0.565,0.351,1.147,0.505,1.763,0.462c0.822-0.051,1.49,0.026,2.012,0.24c0.668,0.343,1.104,0.715,1.314,1.062
				c0.257,0.569,0.766,1.031,1.537,1.404c1.288,0.719,2.166,1.874,2.62,3.467c0.227,0.869,0.227,1.798,0,2.782
				c-0.137,0.668-0.398,1.155-0.762,1.455c-0.368,0.424-0.569,0.873-0.625,1.399c-0.047,0.562-0.146,0.95-0.291,1.156
				c-0.265,0.604-0.317,1.143-0.163,1.613c0.163,0.467,0.163,1.027,0,1.708c-0.317,1.742-0.39,3.565-0.231,5.466
				c0,1.289-0.184,2.342-0.548,3.168c-0.15,0.462-0.12,1.104,0.094,1.926c0.15,0.677,0.125,1.473-0.094,2.406
				c-0.214,0.771-0.214,1.558,0,2.388c0.364,1.943,0.437,3.626,0.244,5.013c-0.321,2.367-0.209,4.104,0.304,5.248
				c0.972,2.979,1.489,5.393,1.541,7.246C139.697,170.927,139.898,172.22,140.207,173.294L140.207,173.294z M121.677,165.876
				c0.411-0.09,1.083-0.167,2.016-0.214c0.873-0.06,1.485-0.188,1.849-0.394c1.036-0.352,2.076-0.231,3.159,0.394
				c0.877,0.458,1.387,1.229,1.545,2.312c0.051,1.182-0.291,2.008-1.079,2.474c-0.972,0.608-2.342,0.813-4.092,0.608
				c-0.509-0.099-0.805-0.129-0.848-0.077c-0.316,0.047-0.642,0.077-1.006,0.077c-0.415,0-0.757,0.077-1.074,0.239
				c-0.924,0.309-2.089,0.278-3.476-0.081c-0.719-0.467-1.113-1.108-1.156-1.926c0.043-0.578,0.257-1.187,0.616-1.858
				c0.574-0.715,1.25-1.108,2.081-1.159C120.829,166.176,121.321,166.043,121.677,165.876L121.677,165.876z M111.267,130.46
				c0.257-0.158,0.462-0.385,0.617-0.685c0.051-0.419,0.616-0.599,1.69-0.539c0.775,0.043,1.425,0.325,1.931,0.839
				c0.518,0.783,0.856,1.541,1.01,2.32c0.094,0.351,0.223,0.693,0.385,1.001c0.047,0.248,0.047,0.565,0,0.934
				c0.154,0.715,0.248,1.258,0.308,1.613c0.051,0.411-0.026,0.959-0.235,1.622c-0.364,0.874-0.796,1.388-1.306,1.55
				c-0.471,0.205-1.083-0.086-1.849-0.855c-1.091-0.72-1.704-1.473-1.862-2.239c-0.518-1.182-0.788-2.012-0.843-2.474
				c0-0.3-0.082-0.878-0.244-1.691C110.933,130.979,111.057,130.512,111.267,130.46L111.267,130.46z M86.261,141.735
				c-0.051,0-0.077,0.025-0.077,0.076c-0.411,0.352-1.027,0.557-1.849,0.608c-0.728,0.106-1.181,0.492-1.382,1.164
				c-0.432,0.976-1.117,1.772-2.093,2.389c-0.676,0.415-1.027,0.933-1.079,1.55c-0.107,0.873-0.415,1.54-0.92,2.012
				c-0.676,0.616-0.989,1.177-0.937,1.694c0.214,0.916,0.693,1.798,1.472,2.615c0.569,0.313,1.156,0.471,1.781,0.471
				c0.766,0.048,1.301,0.167,1.626,0.39c0.505,0.3,0.942,0.381,1.292,0.228c0.724-0.262,1.267-0.313,1.618-0.158
				c0.565,0.103,1.327-0.035,2.243-0.386c0.924-0.424,1.708-1.027,2.315-1.857c0-0.052,0-0.103,0-0.15
				c0-0.92,0.107-1.639,0.317-2.161c0.257-0.668,0.355-1.489,0.308-2.47c-0.116-0.921-0.342-1.563-0.689-1.931
				c-0.116-0.154-0.24-0.462-0.402-0.925c-0.206-0.556-0.484-1.027-0.839-1.387c-0.209-0.196-0.333-0.385-0.385-0.539
				c-0.06-0.163-0.154-0.316-0.313-0.462C87.699,142.197,87.04,141.932,86.261,141.735L86.261,141.735z M72.761,153.934
				c0.051-0.573-0.026-1.241-0.24-2.012c-0.154-0.778,0.025-1.652,0.548-2.632c0.771-1.794,1.545-2.847,2.315-3.163
				c0.501-0.257,0.792-0.771,0.852-1.546c0.051-0.715,0.402-1.57,1.074-2.547c0.407-0.864,0.424-1.716,0.082-2.547
				c-0.056-0.406-0.249-0.791-0.544-1.151c-0.313-0.458-0.642-0.71-1.006-0.771c-0.873-0.325-1.413-0.719-1.622-1.241
				c-0.201-0.257-0.458-0.458-0.775-0.616c-0.411-0.205-0.582-0.53-0.539-1.001c0.051-0.317-0.094-0.643-0.462-1.002
				c-0.351-0.368-0.565-0.774-0.616-1.232c-0.052-1.494,0.077-2.346,0.389-2.552c0.364-0.304,0.518-0.642,0.467-1.001
				c0-0.514,0.411-1.567,1.224-3.159c0.984-1.857,1.635-2.954,1.935-3.253c0.21-0.142,0.394-0.484,0.54-0.993
				c0.206-0.411,0.488-0.771,0.856-1.083c0.308-0.201,0.479-0.483,0.543-0.852c0.142-0.463,0.402-0.797,0.762-1.002
				c0.316-0.103,0.625-0.462,0.933-1.074c0.822-1.507,1.459-2.222,1.926-2.17c0.454,0,0.847-0.099,1.151-0.309
				c0.518-0.309,1.155-0.359,1.926-0.146c0.629,0.205,1.083,0.287,1.391,0.231c0.822-0.215,1.781,0,2.859,0.62
				c1.237,0.869,1.879,1.789,1.931,2.761c0.051,0.942-0.107,1.516-0.454,1.708c-0.839,0.664-1.502,0.972-2.021,0.925
				c-0.616-0.056-1.023,0.03-1.224,0.235c-0.416,0.313-0.882,0.437-1.4,0.381c-0.454-0.099-0.869,0-1.229,0.313
				c-0.313,0.257-0.573,0.381-0.774,0.381c-0.313-0.047-0.608,0.107-0.933,0.463c-0.407,0.518-0.638,0.937-0.685,1.228
				c-0.107,0.583-0.308,0.942-0.621,1.097c-0.359,0.304-0.642,0.771-0.852,1.378c-0.252,0.676-0.483,1.027-0.689,1.083
				c-0.359,0.266-0.642,1.01-0.848,2.238c-0.676,1.396-0.856,2.423-0.543,3.082c0.569,0.886,1.032,1.426,1.391,1.64
				c0.355,0.09,0.557,0.244,0.625,0.449c0.146,0.411,0.531,0.65,1.147,0.693c0.557,0.06,0.925,0.158,1.075,0.309
				c0.723,0.368,1.322,0.286,1.785-0.228c0.407-0.406,0.796-0.646,1.151-0.688c0.578-0.064,0.95-0.416,1.156-1.083
				c0.167-0.359,0.33-0.616,0.543-0.771c0.522-0.321,0.869-0.852,1.079-1.631c0.205-0.561,0.415-0.941,0.625-1.156
				c0.355-0.41,0.462-0.787,0.295-1.151c-0.03-0.415-0.556-0.86-1.537-1.391c-0.411-0.257-0.437-0.801-0.073-1.627
				c0.257-0.509,0.715-0.762,1.387-0.762c0.355-0.052,0.698-0.18,1.006-0.385c0.36-0.262,0.771-0.283,1.233-0.086
				c0.308,0.162,0.724,0.239,1.233,0.239c1.442,0.104,2.632,0.771,3.553,2.004c0.565,0.771,0.745,1.313,0.539,1.626
				c-0.265,0.402-0.235,0.946,0.077,1.618c0.197,0.607,0.197,1.232,0,1.85c-0.411,0.924-0.873,1.416-1.387,1.455
				c-1.289,0.428-2.269,0.959-2.937,1.635c-0.471,0.402-0.719,0.848-0.771,1.302c-0.146,0.257-0.257,0.552-0.308,0.847
				c0,0.167,0.026,0.266,0.082,0.317c0.107,0.514,0.167,1.16,0.227,1.931c0.052,0.06,0.103,0.098,0.154,0.158
				c0.146,0.3,0.334,0.479,0.539,0.539c0.518,0.197,0.874,0.616,1.087,1.229c0.193,0.518,0.488,0.954,0.843,1.31
				c0.355,0.21,0.646,0.655,0.852,1.318c0.411,1.083,0.646,2.033,0.685,2.843c0.103,1.091,0.266,1.888,0.471,2.4
				c0.257,0.729,0.36,1.336,0.313,1.854c-0.056,1.131-0.398,2.085-1.014,2.855c-0.407,0.411-0.852,0.728-1.306,0.933
				c-0.257,0.309-0.65,0.634-1.164,0.998c-0.972,0.616-1.793,1.34-2.457,2.161c-0.989,1.182-2.401,1.845-4.246,2.003
				c-0.728,0-1.408,0.107-2.084,0.305c-0.891,0.218-1.704,0.085-2.474-0.373c-1.027-0.573-2.003-0.83-2.924-0.771
				c-1.498,0.095-2.945-0.419-4.323-1.554C73.287,156.16,72.701,154.738,72.761,153.934L72.761,153.934z M90.815,162.641
				c0.257-0.197,0.462-0.458,0.625-0.763c0.086-0.41,0.707-0.595,1.849-0.539c0.813,0,1.485,0.325,2.003,0.997
				c0.556,0.826,0.924,1.614,1.074,2.397c0.056,0.411,0.163,0.767,0.313,1.074c0.051,0.313,0.051,0.646,0,1.006
				c0.158,0.672,0.257,1.241,0.308,1.699c0.06,0.471-0.03,1.019-0.231,1.695c-0.454,0.925-0.95,1.464-1.464,1.609
				c-0.518,0.214-1.19-0.09-2.003-0.916c-1.096-0.813-1.704-1.644-1.849-2.482c-0.573-1.225-0.852-2.076-0.852-2.543
				c0-0.351-0.082-0.941-0.244-1.768C90.451,163.196,90.61,162.7,90.815,162.641L90.815,162.641z M82.554,164.956
				c0.316-0.099,0.578-0.244,0.779-0.458c0.154-0.364,0.762-0.364,1.849,0c0.715,0.252,1.229,0.715,1.537,1.378
				c0.257,0.938,0.355,1.789,0.321,2.543c-0.064,1.349,0.068,2.59,0.381,3.715c0.098,1.032-0.107,2.123-0.612,3.245
				c-0.06,0.728-0.115,1.258-0.163,1.626c-0.099,0.463-0.325,0.95-0.693,1.456c-0.672,0.728-1.258,1.096-1.776,1.096
				c-0.514,0.042-1.023-0.411-1.549-1.396c-0.707-1.036-1.049-1.935-0.993-2.71c-0.415-2.773-0.552-4.631-0.381-5.56
				c0.15-0.711,0.325-1.943,0.531-3.698C82.092,165.375,82.357,164.956,82.554,164.956L82.554,164.956z M73.227,165.5
				c0.351-1.447,0.993-2.304,1.914-2.633c0.881-0.244,1.618,0.038,2.251,0.86c0.462,0.771,0.462,1.798,0,3.086
				c-0.111,0.929-0.137,1.871-0.082,2.855c0.252,0.976,0.21,1.874-0.167,2.696c-0.359,0.873-0.839,1.652-1.464,2.32
				c-0.355,0.766-0.689,1.639-0.993,2.624c-0.257,1.035-0.693,1.699-1.327,2.003c-0.599,0.402-1.374,0.518-2.307,0.304
				c-0.877-0.253-1.413-0.839-1.614-1.772c-0.257-1.027-0.231-2.08,0.077-3.158c0.411-0.831,0.693-1.798,0.847-2.937
				c0-1.644,0.544-3.107,1.623-4.4C72.606,166.736,73.017,166.12,73.227,165.5L73.227,165.5z"/>
			<path fill-rule="evenodd" clip-rule="evenodd" fill="#E60012" d="M177.416,169.969c0.531-0.634,1.19-1.113,2.025-1.465
				c0.757-0.367,1.459-0.855,2.076-1.48c1.079-0.767,1.96-1.331,2.628-1.695c1.173-0.715,2.645-1.644,4.392-2.773
				c1.404-1.036,2.397-1.721,3.022-2.089c0.351-0.616,0.83-1.1,1.455-1.468c1.456-0.878,2.808-1.871,4.083-3.001
				c1.044-0.724,1.943-0.98,2.706-0.783c1.189,0.321,1.75,1.006,1.703,2.093c-0.205,1.015-0.869,1.875-2.012,2.543
				c-0.565,0.368-1.07,0.873-1.541,1.541c-1.181,0.988-2.26,1.857-3.236,2.628c-0.822,0.411-1.485,1.027-2.012,1.849
				c-1.181,1.139-2.251,1.927-3.245,2.389c-0.244,0.522-0.406,1.079-0.454,1.713c-0.206,0.873-0.334,1.339-0.39,1.378
				c-0.423-0.039-0.843-0.039-1.314,0c-0.347,0.051-0.882,0.111-1.532,0.158c-0.206,0-0.351,0.018-0.398,0.077
				c-0.056,0-0.107,0.021-0.15,0.081c-0.71,0.449-1.335,1.023-1.849,1.691c-0.514,0.509-1.421,1.031-2.705,1.545
				c-0.728,0.308-1.49,0.877-2.312,1.703c-0.676,0.51-1.802,1.096-3.399,1.764c-2.102,1.036-3.587,1.58-4.396,1.622
				c-0.476-0.042-1.237,0.313-2.324,1.092c-1.225,0.813-2.418,1.254-3.536,1.301c-1.447,0.163-2.551,0-3.322-0.462
				c-0.976-0.607-1.639-1.541-1.931-2.773c-0.149-0.878,0.253-1.798,1.237-2.782c0.92-0.925,2.089-1.413,3.467-1.464
				c2.363-0.317,4.01-0.767,4.944-1.396c0.612-0.402,1.545-0.711,2.769-0.916C174.753,171.505,176.603,170.627,177.416,169.969
				L177.416,169.969z M198.265,181.847c-1.28,0.509-2.255,0.697-2.94,0.534c-0.856-0.304-1.558-0.487-2.08-0.534
				c-1.07-0.15-1.772-0.484-2.076-1.006c-0.206-0.569-0.543-1.096-1.015-1.618c-0.462-0.415-0.71-0.869-0.762-1.396
				c-0.111-0.411-0.308-0.788-0.621-1.151c-0.578-0.762-0.877-1.571-0.929-2.385c-0.051-0.873,0.163-1.48,0.616-1.789
				c0.728-0.509,1.652-0.453,2.791,0.163c0.505,0.295,1.096,0.71,1.763,1.232c0.368,0.197,0.719,0.309,1.079,0.309
				c0.985,0.3,2.423,0.201,4.332-0.309c2.457-0.467,4.032-1.036,4.708-1.699c0.248-0.406,0.607-0.638,1.074-0.693
				c1.083-0.471,2.256-1.494,3.548-3.095c0.471-0.668,0.882-1.186,1.241-1.528c0.925-0.929,1.695-2.427,2.32-4.485
				c0.411-2.157,0.376-3.703-0.099-4.623c-0.561-1.661-1.563-3.111-2.992-4.409c-0.265-0.149-0.479-0.261-0.71-0.295
				c-0.71,0.034-1.25,0.086-1.609,0.146c-0.775,0.149-1.387,0.257-1.849,0.309c-0.514,0.103-0.924,0.18-1.241,0.227
				c-0.304-0.047-0.561-0.561-0.762-1.537c-0.313-1.035-0.651-1.935-1.01-2.696c-0.21-0.316-0.326-0.539-0.385-0.706
				c-0.257-0.103-0.565-0.154-0.929-0.154c-1.339-0.253-2.264-0.27-2.786-0.072c-0.967,0.248-1.721,0.316-2.226,0.153
				c-0.051,0-0.103,0-0.154,0c-0.249,0.779-0.865,1.473-1.858,2.089c-0.565,0.352-1.027,0.792-1.378,1.302
				c-1.036,0.877-2.046,1.652-3.009,2.319c-0.736,0.416-1.349,0.95-1.854,1.627c-1.147,0.976-2.123,1.699-2.945,2.157
				c-0.518,0.257-1.032,0.65-1.541,1.155c-0.771,0.771-1.566,1.379-2.38,1.858c-0.685,0.308-1.267,0.762-1.781,1.387
				c-0.514,0.573-1.344,1.044-2.474,1.387c-0.604,0.257-1.31,0.779-2.08,1.55c-0.667,0.402-1.729,0.924-3.176,1.541
				c-1.892,0.877-3.231,1.301-4.006,1.301c-0.419-0.06-1.104,0.257-2.076,0.925c-1.083,0.731-2.17,1.112-3.257,1.173
				c-1.332,0.099-2.337-0.086-2.997-0.539c-0.929-0.574-1.494-1.426-1.712-2.552c-0.154-0.728,0.244-1.55,1.164-2.465
				c0.882-0.835,1.935-1.268,3.167-1.323c2.217-0.201,3.741-0.569,4.554-1.074c0.514-0.313,1.327-0.565,2.466-0.779
				c2.628-0.873,4.327-1.644,5.102-2.312c0.462-0.518,1.104-0.929,1.922-1.232c0.724-0.359,1.34-0.805,1.862-1.318
				c0.968-0.663,1.798-1.143,2.466-1.473c1.139-0.659,2.5-1.48,4.088-2.452c1.288-0.878,2.179-1.494,2.701-1.854
				c0.407-0.471,0.873-0.878,1.396-1.246c1.13-0.616,2.183-1.305,3.15-2.071l-0.069-0.081c-0.728-0.407-1.079-1.182-1.079-2.316
				c0.052-1.074,0.638-1.857,1.772-2.315c1.13-0.359,2.183-0.509,3.159-0.462c0.976,0.051,2.038,0.188,3.163,0.385
				c1.186,0.402,2.093,0.505,2.705,0.309c0.424-0.15,0.955-0.21,1.623-0.15c0.625,0.313,1.327,0.433,2.157,0.377
				c0.522-0.099,1.104,0.081,1.781,0.535c1.125,0.835,2.312,1.481,3.544,1.939c1.087,0.458,1.811,1.027,2.166,1.699
				c0.728,0.821,1.729,1.721,3.013,2.688c0.561,0.429,0.874,1.011,0.925,1.789c0.299,0.557,0.689,1.34,1.16,2.316
				c0.514,0.616,0.741,1.331,0.689,2.161c0.098,0.616,0.342,1.164,0.702,1.614c0.253,0.419,0.274,0.852,0.069,1.313
				c-0.308,0.565-0.36,1.263-0.163,2.085c0.368,0.564,0.222,1.725-0.454,3.479c-0.103,0.402-0.154,0.941-0.154,1.609
				c0,0.882-0.505,2.089-1.468,3.63c-1.284,1.55-2.162,2.342-2.624,2.389c-0.359,0.257-0.693,0.728-1.001,1.396
				c-0.771,1.027-1.943,2.037-3.553,3.013c-3.185,2.153-5.351,3.348-6.489,3.545C200.684,180.978,199.554,181.328,198.265,181.847
				L198.265,181.847z M173.109,119.027c-1.498-0.411-2.251-1.177-2.251-2.315c-0.038-1.135,0.343-2.008,1.156-2.62
				c0.998-0.821,2.196-1.263,3.63-1.31c0.89-0.051,1.806-0.188,2.778-0.394c1.34-0.505,2.864-0.771,4.567-0.771
				c2.114-0.047,3.775,0.034,5.017,0.239c1.592,0.411,3.27,0.514,5.008,0.3c2.68-0.363,5.042-0.051,7.097,0.925
				c0.526,0.364,1.267,0.514,2.243,0.462c1.087,0.052,2.191,0.548,3.322,1.473c1.284,0.771,1.952,1.464,2.012,2.08
				c0.06,0.617,0.325,1.156,0.839,1.627c0.676,0.715,0.989,2.029,0.925,3.93c0.163,0.929,0.385,1.729,0.706,2.401
				c0.415,0.663,0.621,1.712,0.621,3.15c0,1.656,0,3.197,0,4.635c-0.06,2.158-0.565,3.729-1.563,4.705
				c-0.771,1.193-2.016,2.109-3.771,2.786c-1.237,0.715-2.859,0.976-4.871,0.771c-1.378-0.103-2.568-0.056-3.548,0.149
				c-1.125,0.407-2.187,0.458-3.163,0.158c-0.925-0.41-1.875-0.475-2.842-0.158c-1.143,0.578-2.183,0.625-3.176,0.158
				c-0.719-0.308-1.49-0.363-2.312-0.158c-0.266,0.925-0.616,1.803-1.079,2.615c-0.471,0.732-1.147,1.43-2.072,2.089
				c-0.479,0.368-0.89,0.805-1.25,1.323c-0.351,0.771-0.847,1.254-1.455,1.459c-0.719,0.257-1.344,0.643-1.858,1.151
				c-0.873,0.938-1.879,1.58-3.022,1.943c-0.869,0.402-1.712,0.869-2.542,1.383c-0.719,0.565-1.789,0.882-3.236,0.925
				c-1.233,0.051-2.32,0.39-3.245,1.006c-0.984,0.449-1.729,0.663-2.234,0.625c-0.616-0.061-1.104,0-1.468,0.141
				c-1.224,0.472-2.487,0.514-3.788,0.163c-1.019-0.304-1.558-0.65-1.609-1.002c-0.051-0.41-0.18-0.642-0.389-0.71
				c-0.197-0.146-0.334-0.476-0.398-0.998c-0.094-0.83,0.116-1.532,0.629-2.157c0.466-0.466,1.156-0.852,2.089-1.164
				c0.98-0.252,1.952-0.278,2.923-0.064c0.668,0.146,1.507,0.231,2.479,0.231c0.972-0.103,1.871-0.385,2.692-0.848
				c0.783-0.625,1.639-0.959,2.628-1.01c0.98-0.154,1.849-0.565,2.62-1.241c0.728-0.557,1.49-0.925,2.316-1.074
				c1.186-0.565,2.157-1.314,2.94-2.239c0.308-0.612,0.616-1.104,0.933-1.473c-1.297-0.402-2.508-0.342-3.638,0.154
				c-0.779,0.313-2.003,0.214-3.707-0.304c-1.798-0.467-2.868-1.113-3.236-1.931c-0.163-0.826-0.736-1.575-1.704-2.229
				c-0.762-0.471-1.079-1.494-0.925-3.087c-0.051-2.422-0.18-4.399-0.385-5.949c-0.257-0.925-0.278-1.841-0.077-2.782
				c0.098-0.612,0.128-1.25,0.077-1.926c-0.056-1.383,0.175-2.624,0.693-3.699c0.359-0.77,0.805-1.339,1.31-1.703
				c0.471-0.368,0.95-0.557,1.477-0.616c0.612,0.103,1.152,0.248,1.614,0.471c0.454,0.411,0.796,0.997,1.01,1.78
				c0.351,0.925,0.437,2.397,0.214,4.474c-0.355,2.461-0.428,4.336-0.214,5.628c0.3,1.645,0.71,2.796,1.224,3.472
				c0.625,1.062,1.567,1.794,2.872,2.166c1.888,0.561,4.002,0.501,6.314-0.154c2.979-0.882,5.902-0.976,8.723-0.32
				c1.798,0.419,3.395,0.359,4.786-0.154c1.391-0.407,2.945-0.591,4.7-0.531c1.49,0.192,2.649-0.188,3.476-1.173
				c0.672-0.509,1.237-1.455,1.704-2.846c0.206-1.537,0.077-2.881-0.385-4.011c-0.368-1.036-0.548-1.957-0.548-2.782
				c-0.043-0.553-0.171-1.156-0.376-1.776c-0.621-0.763-0.959-1.314-1.01-1.605c-0.21-0.621-0.492-1.045-0.848-1.246
				c-0.557-0.205-1.019-0.471-1.387-0.774c-0.522-0.663-2.864-1.104-7.024-1.31c-2.885,0.051-5.282-0.026-7.178-0.223
				c-2.573-0.518-4.965-0.24-7.174,0.839C176.654,119.053,174.856,119.331,173.109,119.027L173.109,119.027z M183.306,124.049
				c1.943-0.411,3.869-0.445,5.778-0.086c1.481,0.419,2.799,0.471,3.929,0.154c1.396-0.359,2.551-0.274,3.484,0.239
				c0.92,0.659,1.413,1.571,1.455,2.697c-0.205,1.082-0.633,1.793-1.31,2.165c-0.916,0.411-1.806,0.429-2.628,0.077
				c-1.584-0.419-2.997-0.449-4.238-0.077c-1.49,0.557-2.881,0.591-4.173,0.077c-1.28-0.316-3.009-0.214-5.158,0.3
				c-1.609,0.522-2.971,0.522-4.092,0c-0.83-0.668-1.215-1.489-1.16-2.457c0.107-0.941,0.483-1.729,1.16-2.396
				c0.668-0.677,1.567-0.839,2.697-0.471C180.129,124.635,181.542,124.558,183.306,124.049L183.306,124.049z"/>
			<polygon fill-rule="evenodd" clip-rule="evenodd" fill="#231815" points="277.653,151.109 300.434,151.109 300.434,157.003 
				286.214,157.003 286.214,161.369 299.398,161.369 299.398,166.972 286.214,166.972 286.214,172.399 300.853,172.399 
				300.853,178.648 277.653,178.648 277.653,151.109 			"/>
			<polygon fill-rule="evenodd" clip-rule="evenodd" fill="#231815" points="303.511,151.109 329.395,151.109 329.395,157.889 
				320.697,157.889 320.697,178.648 312.205,178.648 312.205,157.889 303.511,157.889 303.511,151.109 			"/>
			<path fill-rule="evenodd" clip-rule="evenodd" fill="#231815" d="M385.417,178.648h8.907l-10.328-27.539h-9.293l-10.337,27.539
				h8.702l1.369-4.532h9.597L385.417,178.648L385.417,178.648z M376.239,168.153l3.005-9.9l3.001,9.9H376.239L376.239,168.153z"/>
			<path fill-rule="evenodd" clip-rule="evenodd" fill="#231815" d="M395.536,169.54l8.081-0.496
				c0.171,1.297,0.539,2.303,1.062,2.987c0.873,1.104,2.127,1.674,3.758,1.674c1.22,0,2.148-0.287,2.816-0.852
				c0.668-0.582,0.984-1.241,0.984-2.004c0-0.701-0.299-1.335-0.92-1.9c-0.625-0.573-2.08-1.1-4.336-1.597
				c-3.75-0.843-6.403-1.956-7.987-3.343c-1.609-1.396-2.414-3.167-2.414-5.324c0-1.413,0.402-2.74,1.225-4.007
				c0.83-1.259,2.071-2.243,3.702-2.971c1.652-0.715,3.925-1.078,6.775-1.078c3.523,0,6.202,0.65,8.052,1.964
				c1.854,1.306,2.949,3.395,3.3,6.237l-8.013,0.479c-0.196-1.242-0.65-2.149-1.344-2.706c-0.677-0.564-1.635-0.839-2.834-0.839
				c-0.984,0-1.729,0.206-2.251,0.63c-0.497,0.415-0.745,0.929-0.745,1.527c0,0.438,0.206,0.831,0.638,1.19
				c0.381,0.351,1.331,0.693,2.847,1.006c3.711,0.801,6.378,1.605,7.991,2.436c1.601,0.817,2.773,1.841,3.519,3.048
				c0.715,1.216,1.083,2.568,1.083,4.083c0,1.772-0.479,3.398-1.455,4.889c-0.977,1.489-2.337,2.628-4.101,3.398
				c-1.755,0.766-3.964,1.164-6.635,1.164c-4.666,0-7.923-0.907-9.725-2.705C396.793,174.617,395.775,172.331,395.536,169.54
				L395.536,169.54z"/>
			<polygon fill-rule="evenodd" clip-rule="evenodd" fill="#231815" points="424.783,151.109 447.567,151.109 447.567,157.003 
				433.339,157.003 433.339,161.369 446.523,161.369 446.523,166.972 433.339,166.972 433.339,172.399 447.965,172.399 
				447.965,178.648 424.783,178.648 424.783,151.109 			"/>
			<polygon fill-rule="evenodd" clip-rule="evenodd" fill="#231815" points="241.441,143.841 249.942,143.841 261.028,163.111 
				261.028,143.841 269.585,143.841 269.585,178.61 261.028,178.61 249.989,159.417 249.989,178.61 241.441,178.61 241.441,143.841 
							"/>
			<polygon fill-rule="evenodd" clip-rule="evenodd" fill="#231815" points="334.92,143.841 359.242,143.841 359.242,151.28 
				344.059,151.28 344.059,156.793 358.142,156.793 358.142,163.86 344.059,163.86 344.059,170.722 359.691,170.722 359.691,178.61 
				334.92,178.61 334.92,143.841 			"/>
			<path fill-rule="evenodd" clip-rule="evenodd" fill="#231815" d="M229.457,198.133v28.979h-7.529v-18.94
				c-1.229,0.963-2.397,1.75-3.536,2.35c-1.125,0.621-2.568,1.198-4.285,1.746v-6.454c2.542-0.865,4.507-1.927,5.898-3.143
				c1.408-1.224,2.5-2.727,3.296-4.537H229.457L229.457,198.133z"/>
			<path fill-rule="evenodd" clip-rule="evenodd" fill="#231815" d="M268.656,201.232c-0.805-1.023-1.819-1.776-3.061-2.295
				c-1.241-0.53-2.923-0.805-5.034-0.805c-3.617,0-6.434,1.203-8.454,3.596c-2.012,2.389-3.031,6.151-3.031,11.301
				c0,3.505,0.479,6.326,1.447,8.458c0.959,2.144,2.26,3.681,3.87,4.665c1.622,0.976,3.767,1.455,6.42,1.455
				c2.243,0,4.083-0.402,5.556-1.202c1.481-0.792,2.636-1.974,3.476-3.519c0.83-1.554,1.25-3.271,1.25-5.149
				c0-2.782-0.834-5.085-2.482-6.896c-1.635-1.811-3.643-2.731-6.035-2.731c-1.224,0-2.299,0.249-3.236,0.707
				c-0.954,0.466-1.857,1.151-2.739,2.118c0.235-3.056,0.591-5.051,1.079-5.988c0.668-1.292,1.614-1.935,2.808-1.935
				c0.685,0,1.237,0.231,1.704,0.663c0.441,0.45,0.774,1.229,0.984,2.316l7.341-0.959
				C270.099,203.51,269.474,202.233,268.656,201.232L268.656,201.232z M257.908,214.219c0.698-0.817,1.566-1.225,2.606-1.225
				c1.015,0,1.849,0.42,2.542,1.276c0.677,0.839,1.019,2.071,1.019,3.672c0,1.584-0.334,2.757-0.989,3.545
				c-0.655,0.796-1.468,1.189-2.453,1.189c-1.044,0-1.96-0.437-2.688-1.314c-0.719-0.877-1.087-2.084-1.087-3.643
				C256.859,216.214,257.202,215.032,257.908,214.219L257.908,214.219z"/>
			<path fill-rule="evenodd" clip-rule="evenodd" fill="#231815" d="M294.998,206.856l-7.028-1.335
				c0.573-2.372,1.704-4.199,3.373-5.479c1.661-1.267,3.998-1.909,7.041-1.909c3.497,0,6.006,0.707,7.572,2.076
				c1.55,1.399,2.337,3.138,2.337,5.218c0,1.241-0.308,2.333-0.959,3.339c-0.625,1.002-1.583,1.857-2.859,2.628
				c1.04,0.266,1.828,0.574,2.372,0.959c0.895,0.569,1.575,1.344,2.093,2.299c0.479,0.963,0.724,2.084,0.724,3.411
				c0,1.678-0.415,3.253-1.225,4.785c-0.821,1.524-1.99,2.714-3.519,3.527c-1.532,0.822-3.557,1.232-6.052,1.232
				c-2.423,0-4.35-0.308-5.753-0.916c-1.396-0.607-2.547-1.498-3.45-2.671c-0.899-1.181-1.614-2.653-2.093-4.435l7.426-1.053
				c0.291,1.601,0.719,2.723,1.348,3.33c0.621,0.625,1.396,0.925,2.35,0.925c0.993,0,1.832-0.39,2.482-1.164
				c0.668-0.779,0.993-1.815,0.993-3.125c0-1.318-0.308-2.346-0.959-3.073c-0.633-0.728-1.506-1.087-2.602-1.087
				c-0.591,0-1.396,0.154-2.432,0.462l0.394-5.667c0.419,0.056,0.74,0.077,0.972,0.077c0.984,0,1.807-0.317,2.461-0.98
				c0.651-0.655,0.989-1.43,0.989-2.333c0-0.852-0.261-1.541-0.749-2.055c-0.471-0.505-1.156-0.762-1.999-0.762
				c-0.874,0-1.601,0.266-2.162,0.831C295.554,204.468,295.169,205.461,294.998,206.856L294.998,206.856z"/>
			<polygon fill-rule="evenodd" clip-rule="evenodd" fill="#231815" points="69.473,206.382 75.192,206.382 77.272,217.249 
				80.294,206.382 85.987,206.382 89.009,217.232 91.102,206.382 96.808,206.382 92.501,225.908 86.569,225.908 83.136,213.611 
				79.729,225.908 73.813,225.908 69.473,206.382 			"/>
			<polygon fill-rule="evenodd" clip-rule="evenodd" fill="#231815" points="109.426,206.382 115.17,206.382 117.233,217.249 
				120.251,206.382 125.931,206.382 128.958,217.232 131.068,206.382 136.756,206.382 132.455,225.908 126.531,225.908 
				123.098,213.611 119.69,225.908 113.775,225.908 109.426,206.382 			"/>
			<polygon fill-rule="evenodd" clip-rule="evenodd" fill="#231815" points="149.392,206.382 155.115,206.382 157.191,217.249 
				160.208,206.382 165.884,206.382 168.906,217.232 171.012,206.382 176.722,206.382 172.408,225.908 166.488,225.908 
				163.051,213.611 159.635,225.908 153.728,225.908 149.392,206.382 			"/>
			<polygon fill-rule="evenodd" clip-rule="evenodd" fill="#231815" points="192.773,213.389 198.582,213.389 198.582,218.812 
				192.773,218.812 192.773,213.389 			"/>
			<polygon fill-rule="evenodd" clip-rule="evenodd" fill="#231815" points="327.152,213.389 332.948,213.389 332.948,218.812 
				327.152,218.812 327.152,213.389 			"/>
			<path fill-rule="evenodd" clip-rule="evenodd" fill="#231815" d="M365.205,217.896l5.304,1.597
				c-0.36,1.498-0.921,2.739-1.691,3.732c-0.762,0.993-1.708,1.755-2.854,2.256c-1.126,0.51-2.564,0.767-4.328,0.767
				c-2.114,0-3.86-0.309-5.205-0.925c-1.344-0.625-2.512-1.704-3.492-3.253c-0.98-1.559-1.473-3.545-1.473-5.967
				c0-3.232,0.882-5.715,2.594-7.452c1.721-1.742,4.161-2.611,7.315-2.611c2.47,0,4.404,0.51,5.821,1.494
				c1.408,0.992,2.452,2.525,3.146,4.584l-5.351,1.194c-0.188-0.608-0.377-1.045-0.591-1.31c-0.334-0.467-0.754-0.813-1.241-1.075
				c-0.492-0.252-1.036-0.372-1.636-0.372c-1.378,0-2.439,0.548-3.176,1.652c-0.548,0.805-0.83,2.093-0.83,3.835
				c0,2.166,0.334,3.647,0.984,4.452c0.659,0.805,1.592,1.202,2.791,1.202c1.164,0,2.024-0.334,2.624-0.976
				C364.502,220.065,364.935,219.133,365.205,217.896L365.205,217.896z"/>
			<path fill-rule="evenodd" clip-rule="evenodd" fill="#231815" d="M388.062,221.863c0.898,1.516,2.071,2.628,3.505,3.33
				c1.451,0.707,3.267,1.054,5.483,1.054c2.17,0,3.98-0.407,5.432-1.216c1.447-0.813,2.564-1.961,3.313-3.42
				c0.783-1.451,1.155-3.326,1.155-5.62c0-3.129-0.877-5.573-2.624-7.319c-1.755-1.747-4.246-2.633-7.516-2.633
				c-3.177,0-5.659,0.898-7.431,2.671c-1.781,1.776-2.658,4.259-2.658,7.452C386.722,218.448,387.171,220.34,388.062,221.863
				L388.062,221.863z M393.866,211.925c0.74-0.856,1.712-1.28,2.928-1.28c1.263,0,2.269,0.42,3.005,1.271
				c0.736,0.848,1.104,2.191,1.104,4.023c0,2.17-0.352,3.686-1.058,4.528c-0.697,0.848-1.708,1.268-3.009,1.268
				c-1.241,0-2.252-0.42-2.971-1.293c-0.724-0.856-1.096-2.265-1.096-4.237C392.77,214.219,393.142,212.785,393.866,211.925
				L393.866,211.925z"/>
			<path fill-rule="evenodd" clip-rule="evenodd" fill="#231815" d="M439.495,206.077c-1.978,0-3.168,1.139-3.878,2.102
				c-0.916-1.305-2.055-2.102-4.079-2.102c-1.408,0-2.547,0.522-3.468,1.438c0-0.052,0-0.993,0-0.993h-5.141v18.525h5.304v-11.12
				c0-2.611,1.16-2.611,1.665-2.611c1.353,0,1.571,0.813,1.571,2.739v10.992h5.303v-10.957c0-2.774,1.361-2.774,1.875-2.774
				c0.907,0,1.353,0.891,1.353,2.637v11.095h5.308v-12.532C445.307,208.603,443.03,206.077,439.495,206.077L439.495,206.077z"/>
		</g>
	</g>
</g>
</svg>
